STARTFONT 2.1
COMMENT This font was automatically resized by bdfresize-1.4
COMMENT   mag_x = 1/2, mag_y = 1/2, blackness = 3
FONT -tomabechi-proportional-medium-r-normal--14-140-75-75-P-105-MuleTibetan-2
SIZE 14 75 75
FONTBOUNDINGBOX 25 27 -3 -10
STARTPROPERTIES 26
FOUNDRY "tomabechi"
FAMILY_NAME "proportional"
WEIGHT_NAME "medium"
SLANT "r"
SETWIDTH_NAME "normal"
ADD_STYLE_NAME ""
PIXEL_SIZE 14
POINT_SIZE 140
RESOLUTION_X 75
RESOLUTION_Y 75
SPACING "P"
AVERAGE_WIDTH 105
CHARSET_REGISTRY "MuleTibetan"
CHARSET_ENCODING "2"
STRIKEOUT_ASCENT 13
STRIKEOUT_DESCENT 7
X_HEIGHT 11
FACE_NAME "Mule Tibetan (14 point)"
COPYRIGHT "Public Domain, original design by Toru Tomabechi 1999"
_XMBDFED_INFO "Edited with xmbdfed 4.3."
WEIGHT 10
RESOLUTION 75
QUAD_WIDTH 12
DEFAULT_CHAR 8481
FONT_ASCENT 16
FONT_DESCENT 6
ENDPROPERTIES
CHARS 349
STARTCHAR char8481
ENCODING 8481
SWIDTH 11000 0
DWIDTH 11 0
BBX 10 9 1 1
BITMAP
FFC0
8040
8040
8040
8040
8040
8040
8040
FFC0
ENDCHAR
STARTCHAR char9040
ENCODING 8482
SWIDTH 9000 0
DWIDTH 9 0
BBX 7 3 2 8
BITMAP
FE
FE
10
ENDCHAR
STARTCHAR char105
ENCODING 8496
SWIDTH 13000 0
DWIDTH 13 0
BBX 12 16 1 1
BITMAP
0800
1470
09E0
E300
3C00
0400
DEC0
DEC0
9C40
B640
9A40
8940
C940
78C0
3040
0040
ENDCHAR
STARTCHAR char105
ENCODING 8497
SWIDTH 10000 0
DWIDTH 10 0
BBX 9 9 1 2
BITMAP
DE00
DE00
9C00
B600
9A00
8900
C900
7880
3080
ENDCHAR
STARTCHAR char8498
ENCODING 8498
SWIDTH 10000 0
DWIDTH 10 0
BBX 10 21 0 -5
BITMAP
1000
1000
1000
2800
1000
4400
3800
0080
3D40
7C80
4400
4480
5940
5C80
0200
C100
2180
13C0
0840
07C0
0380
ENDCHAR
STARTCHAR char8498
ENCODING 8499
SWIDTH 10000 0
DWIDTH 10 0
BBX 10 21 0 -5
BITMAP
1000
1000
1000
2800
1000
4480
3940
0080
3C00
7DC0
4400
4480
5940
5C80
0200
C100
2180
13C0
0840
07C0
0380
ENDCHAR
STARTCHAR char8500
ENCODING 8500
SWIDTH 16000 0
DWIDTH 16 0
BBX 16 11 1 0
BITMAP
003C
E07E
18C7
0443
0303
01C7
00FE
023C
0183
00FE
007C
ENDCHAR
STARTCHAR char8500
ENCODING 8501
SWIDTH 10000 0
DWIDTH 10 0
BBX 10 11 0 0
BITMAP
0F00
1F80
31C0
10C0
C0C0
71C0
3F80
8F00
6040
3F80
1F00
ENDCHAR
STARTCHAR char8502
ENCODING 8502
SWIDTH 16000 0
DWIDTH 16 0
BBX 15 18 1 -7
BITMAP
0078
C0FC
318E
0886
0606
038E
18FC
0678
0186
00FC
0078
0000
0038
0010
0010
0010
0010
0010
ENDCHAR
STARTCHAR char8503
ENCODING 8503
SWIDTH 22000 0
DWIDTH 22 0
BBX 21 9 1 2
BITMAP
00F108
C1F968
318D68
090D08
040D08
031D08
01F968
00F168
000108
ENDCHAR
STARTCHAR char8504
ENCODING 8504
SWIDTH 7000 0
DWIDTH 7 0
BBX 7 17 0 -6
BITMAP
02
32
54
98
44
28
54
38
10
38
10
10
10
10
10
10
10
ENDCHAR
STARTCHAR char8505
ENCODING 8505
SWIDTH 8000 0
DWIDTH 8 0
BBX 7 14 1 -3
BITMAP
3C
7E
C6
86
64
78
18
6C
74
0A
0A
04
02
02
ENDCHAR
STARTCHAR char8506
ENCODING 8506
SWIDTH 13000 0
DWIDTH 13 0
BBX 12 16 1 -5
BITMAP
4780
8FC0
98C0
90C0
8C80
8F00
8300
8D80
8E80
8140
8140
8080
8040
8040
4010
3FE0
ENDCHAR
STARTCHAR char58
ENCODING 8507
SWIDTH 4000 0
DWIDTH 4 0
BBX 3 2 1 9
BITMAP
E0
40
ENDCHAR
STARTCHAR char58
ENCODING 8508
SWIDTH 4000 0
DWIDTH 4 0
BBX 3 2 1 9
BITMAP
E0
40
ENDCHAR
STARTCHAR char59
ENCODING 8509
SWIDTH 3000 0
DWIDTH 3 0
BBX 2 18 1 -7
BITMAP
C0
C0
C0
C0
C0
C0
40
40
40
40
40
40
40
40
40
40
40
40
ENDCHAR
STARTCHAR char60
ENCODING 8510
SWIDTH 7000 0
DWIDTH 7 0
BBX 6 18 1 -7
BITMAP
CC
CC
CC
CC
CC
CC
44
44
44
44
44
44
44
44
44
44
44
44
ENDCHAR
STARTCHAR char61
ENCODING 8511
SWIDTH 4000 0
DWIDTH 4 0
BBX 3 18 1 -7
BITMAP
E0
40
00
E0
40
40
40
40
40
40
40
40
40
40
40
40
40
40
ENDCHAR
STARTCHAR char62
ENCODING 8512
SWIDTH 4000 0
DWIDTH 4 0
BBX 3 18 1 -7
BITMAP
E0
00
E0
40
00
40
40
40
40
40
40
40
40
40
40
40
40
40
ENDCHAR
STARTCHAR char63
ENCODING 8513
SWIDTH 5000 0
DWIDTH 5 0
BBX 5 18 0 -7
BITMAP
D8
00
20
20
00
20
20
20
20
20
20
20
20
20
20
20
20
20
ENDCHAR
STARTCHAR char8514
ENCODING 8514
SWIDTH 14000 0
DWIDTH 14 0
BBX 13 22 1 -10
BITMAP
0200
0100
0100
0200
0480
0300
1040
0F80
0000
EAB8
2AA0
0000
0700
0200
0200
0200
0200
0200
0200
0200
0200
0200
ENDCHAR
STARTCHAR char8515
ENCODING 8515
SWIDTH 14000 0
DWIDTH 14 0
BBX 14 15 1 -3
BITMAP
0300
0300
0000
0780
0CC0
1860
D02C
D02C
1020
1860
0CC0
0780
0000
0300
0300
ENDCHAR
STARTCHAR char64
ENCODING 8516
SWIDTH 6000 0
DWIDTH 6 0
BBX 4 11 1 0
BITMAP
60
90
F0
60
00
F0
00
60
F0
90
60
ENDCHAR
STARTCHAR char8517
ENCODING 8517
SWIDTH 11000 0
DWIDTH 11 0
BBX 10 14 1 -3
BITMAP
FFC0
8040
F3C0
8040
B340
8040
FFC0
8040
C3C0
3040
0C40
0340
00C0
0040
ENDCHAR
STARTCHAR char8518
ENCODING 8518
SWIDTH 10000 0
DWIDTH 10 0
BBX 9 18 1 -7
BITMAP
FE80
8280
BE80
A080
BF80
8180
F780
1480
F480
8480
FC80
0080
FF80
1080
FF80
8180
FF80
0080
ENDCHAR
STARTCHAR char8519
ENCODING 8519
SWIDTH 14000 0
DWIDTH 14 0
BBX 13 9 1 1
BITMAP
0048
0290
0AA0
0BE0
2E20
3A40
6B80
7F00
C000
ENDCHAR
STARTCHAR char8520
ENCODING 8520
SWIDTH 7000 0
DWIDTH 7 0
BBX 10 10 -3 -3
BITMAP
0040
0640
0940
0980
6700
9200
9400
7800
1000
E000
ENDCHAR
STARTCHAR char8521
ENCODING 8521
SWIDTH 8000 0
DWIDTH 8 0
BBX 5 7 3 -4
BITMAP
F8
70
20
20
20
20
20
ENDCHAR
STARTCHAR char8522
ENCODING 8522
SWIDTH 5000 0
DWIDTH 5 0
BBX 4 4 1 4
BITMAP
60
90
90
60
ENDCHAR
STARTCHAR char8523
ENCODING 8523
SWIDTH 11000 0
DWIDTH 11 0
BBX 10 4 1 4
BITMAP
6180
9240
9240
6180
ENDCHAR
STARTCHAR char8524
ENCODING 8524
SWIDTH 11000 0
DWIDTH 11 0
BBX 10 9 1 2
BITMAP
0C00
1200
1200
0C00
0000
6180
9240
9240
6180
ENDCHAR
STARTCHAR char8526
ENCODING 8525
SWIDTH 6000 0
DWIDTH 6 0
BBX 5 5 1 4
BITMAP
88
70
20
50
88
ENDCHAR
STARTCHAR char8526
ENCODING 8526
SWIDTH 12000 0
DWIDTH 12 0
BBX 11 5 1 4
BITMAP
8A20
71C0
2080
5140
8A20
ENDCHAR
STARTCHAR char8527
ENCODING 8527
SWIDTH 12000 0
DWIDTH 12 0
BBX 11 5 1 4
BITMAP
7220
8940
8880
8940
7220
ENDCHAR
STARTCHAR char48
ENCODING 8528
SWIDTH 8000 0
DWIDTH 8 0
BBX 7 8 1 4
BITMAP
3C
7E
C6
82
82
C6
7C
38
ENDCHAR
STARTCHAR char49
ENCODING 8529
SWIDTH 8000 0
DWIDTH 8 0
BBX 7 11 1 0
BITMAP
78
FC
C6
C6
46
06
0C
08
10
20
40
ENDCHAR
STARTCHAR char50
ENCODING 8530
SWIDTH 9000 0
DWIDTH 9 0
BBX 8 11 1 1
BITMAP
38
7C
C6
86
86
34
78
0C
04
02
01
ENDCHAR
STARTCHAR char51
ENCODING 8531
SWIDTH 9000 0
DWIDTH 9 0
BBX 8 10 1 2
BITMAP
38
7C
86
3E
4C
06
7C
EE
02
01
ENDCHAR
STARTCHAR char52
ENCODING 8532
SWIDTH 10000 0
DWIDTH 10 0
BBX 9 6 1 5
BITMAP
3000
7100
CE00
6000
3000
1F80
ENDCHAR
STARTCHAR char53
ENCODING 8533
SWIDTH 8000 0
DWIDTH 8 0
BBX 7 8 1 4
BITMAP
80
84
84
84
84
CC
7C
3A
ENDCHAR
STARTCHAR char54
ENCODING 8534
SWIDTH 10000 0
DWIDTH 10 0
BBX 9 6 1 5
BITMAP
8000
8000
8E00
4F00
7880
3880
ENDCHAR
STARTCHAR char55
ENCODING 8535
SWIDTH 9000 0
DWIDTH 9 0
BBX 8 8 1 3
BITMAP
01
01
01
31
71
93
9E
8C
ENDCHAR
STARTCHAR char56
ENCODING 8536
SWIDTH 8000 0
DWIDTH 8 0
BBX 7 8 1 3
BITMAP
10
20
60
C0
F0
F8
04
02
ENDCHAR
STARTCHAR char57
ENCODING 8537
SWIDTH 9000 0
DWIDTH 9 0
BBX 8 10 1 1
BITMAP
3C
7E
C6
8C
C9
66
30
18
04
02
ENDCHAR
STARTCHAR char49
ENCODING 8538
SWIDTH 12000 0
DWIDTH 12 0
BBX 11 10 1 1
BITMAP
1E00
3200
6F00
73C0
A360
2300
0200
0400
0800
1000
ENDCHAR
STARTCHAR char50
ENCODING 8539
SWIDTH 12000 0
DWIDTH 12 0
BBX 10 10 2 2
BITMAP
1C00
3E00
2600
7E00
A7C0
1CC0
3C00
0400
0200
0100
ENDCHAR
STARTCHAR char51
ENCODING 8540
SWIDTH 12000 0
DWIDTH 12 0
BBX 11 11 1 1
BITMAP
1C00
3E00
2300
0E00
7FC0
8360
0F00
1E00
3300
0080
0040
ENDCHAR
STARTCHAR char52
ENCODING 8541
SWIDTH 13000 0
DWIDTH 13 0
BBX 14 6 0 5
BITMAP
0C00
1C40
3380
3FF8
CC0C
07E0
ENDCHAR
STARTCHAR char53
ENCODING 8542
SWIDTH 12000 0
DWIDTH 12 0
BBX 11 9 1 2
BITMAP
2000
2100
2100
2100
3FC0
F160
3300
1F00
0900
ENDCHAR
STARTCHAR char54
ENCODING 8543
SWIDTH 13000 0
DWIDTH 13 0
BBX 13 8 0 3
BITMAP
2000
2000
2300
2480
3FF0
D258
1E40
0E40
ENDCHAR
STARTCHAR char55
ENCODING 8544
SWIDTH 14000 0
DWIDTH 14 0
BBX 13 8 1 3
BITMAP
0080
0080
0080
1880
3FF0
E998
2F00
2600
ENDCHAR
STARTCHAR char56
ENCODING 8545
SWIDTH 12000 0
DWIDTH 12 0
BBX 11 9 1 2
BITMAP
0800
0800
1800
1F80
7060
BE00
3F00
0080
0040
ENDCHAR
STARTCHAR char57
ENCODING 8546
SWIDTH 13000 0
DWIDTH 13 0
BBX 13 9 0 2
BITMAP
0700
0980
1F80
3AE0
5A18
8980
0400
0200
0100
ENDCHAR
STARTCHAR char48
ENCODING 8547
SWIDTH 15000 0
DWIDTH 15 0
BBX 14 8 1 3
BITMAP
0F00
1F80
30C0
7FF0
B0CC
30C0
1F80
0F00
ENDCHAR
STARTCHAR char8548
ENCODING 8548
SWIDTH 5000 0
DWIDTH 5 0
BBX 5 11 1 0
BITMAP
F8
70
20
00
E0
F0
08
00
E0
F0
08
ENDCHAR
STARTCHAR char115
ENCODING 8549
SWIDTH 8000 0
DWIDTH 8 0
BBX 6 6 2 -7
BITMAP
30
48
48
30
84
78
ENDCHAR
STARTCHAR char8550
ENCODING 8550
SWIDTH 11000 0
DWIDTH 11 0
BBX 10 10 1 1
BITMAP
0C00
0C00
0000
0000
C0C0
C0C0
0000
0000
0C00
0C00
ENDCHAR
STARTCHAR char115
ENCODING 8551
SWIDTH 10000 0
DWIDTH 10 0
BBX 4 4 4 -7
BITMAP
60
90
90
60
ENDCHAR
STARTCHAR char8552
ENCODING 8552
SWIDTH 10000 0
DWIDTH 10 0
BBX 9 7 1 4
BITMAP
0080
0080
3080
7880
C880
9980
BF00
ENDCHAR
STARTCHAR char8553
ENCODING 8553
SWIDTH 12000 0
DWIDTH 12 0
BBX 3 3 9 8
BITMAP
60
E0
80
ENDCHAR
STARTCHAR char8554
ENCODING 8554
SWIDTH 18000 0
DWIDTH 18 0
BBX 17 7 1 4
BITMAP
000100
C18280
324900
085400
07C900
038280
000100
ENDCHAR
STARTCHAR char8554
ENCODING 8555
SWIDTH 18000 0
DWIDTH 18 0
BBX 17 7 1 4
BITMAP
400000
A0C180
492600
150800
49F000
A0E000
400000
ENDCHAR
STARTCHAR char8556
ENCODING 8556
SWIDTH 13000 0
DWIDTH 13 0
BBX 13 24 0 -7
BITMAP
0008
0030
0060
00C0
1F80
3000
6000
6000
6000
6000
6000
6000
6000
6000
6000
6000
6000
6000
6000
6000
6000
6000
6000
C000
ENDCHAR
STARTCHAR char8556
ENCODING 8557
SWIDTH 13000 0
DWIDTH 13 0
BBX 13 24 0 -7
BITMAP
8000
6000
3000
1800
0FC0
0060
0030
0030
0030
0030
0030
0030
0030
0030
0030
0030
0030
0030
0030
0030
0030
0030
0030
0018
ENDCHAR
STARTCHAR char8558
ENCODING 8558
SWIDTH 6000 0
DWIDTH 6 0
BBX 6 10 0 -4
BITMAP
1C
30
60
40
C0
80
80
80
80
80
ENDCHAR
STARTCHAR char8558
ENCODING 8559
SWIDTH 6000 0
DWIDTH 6 0
BBX 6 10 0 -4
BITMAP
E0
30
18
08
0C
04
04
04
04
04
ENDCHAR
STARTCHAR char65
ENCODING 8737
SWIDTH 10000 0
DWIDTH 10 0
BBX 9 15 1 -4
BITMAP
7F80
FF80
1980
2480
E480
8280
0280
0280
0080
0080
0080
0080
0080
0080
0080
ENDCHAR
STARTCHAR char66
ENCODING 8738
SWIDTH 10000 0
DWIDTH 10 0
BBX 9 15 1 -4
BITMAP
7F80
FF80
C980
9080
9080
9880
9F80
8180
8000
8000
8000
8000
8000
8000
8000
ENDCHAR
STARTCHAR char67
ENCODING 8739
SWIDTH 9000 0
DWIDTH 9 0
BBX 8 15 1 -4
BITMAP
FF
FF
4D
85
85
F5
FD
05
01
01
01
01
01
01
01
ENDCHAR
STARTCHAR char68
ENCODING 8740
SWIDTH 10000 0
DWIDTH 10 0
BBX 9 17 1 -6
BITMAP
FF80
FF80
4480
8280
FA80
0680
0080
7F00
7E00
2000
6700
2F80
1080
0880
0100
0200
0400
ENDCHAR
STARTCHAR char69
ENCODING 8741
SWIDTH 9000 0
DWIDTH 9 0
BBX 8 10 1 1
BITMAP
FE
FE
80
80
80
80
F8
FC
02
01
ENDCHAR
STARTCHAR char70
ENCODING 8742
SWIDTH 9000 0
DWIDTH 9 0
BBX 9 10 0 1
BITMAP
7F00
7F00
0800
0800
FF00
6380
2180
3080
1980
0F00
ENDCHAR
STARTCHAR char71
ENCODING 8743
SWIDTH 10000 0
DWIDTH 10 0
BBX 9 10 1 1
BITMAP
7F00
7F00
0800
3E00
7F00
C980
8880
8880
8880
7700
ENDCHAR
STARTCHAR char72
ENCODING 8744
SWIDTH 10000 0
DWIDTH 10 0
BBX 9 11 1 0
BITMAP
7F80
7F00
4000
DE00
FF00
8000
8000
BC00
FE00
0100
0080
ENDCHAR
STARTCHAR char8745
ENCODING 8745
SWIDTH 12000 0
DWIDTH 12 0
BBX 10 9 1 0
BITMAP
FFC0
FFC0
FFC0
FFC0
FFC0
FFC0
FFC0
FFC0
FFC0
ENDCHAR
STARTCHAR char74
ENCODING 8746
SWIDTH 10000 0
DWIDTH 10 0
BBX 9 15 1 -4
BITMAP
3E00
7E00
8200
8600
CF00
5180
1180
1D80
0980
0100
0300
0200
0400
0800
1000
ENDCHAR
STARTCHAR char155
ENCODING 8747
SWIDTH 9000 0
DWIDTH 9 0
BBX 8 15 1 -4
BITMAP
FF
FF
03
03
7E
E6
C2
C4
C0
40
20
20
10
10
08
ENDCHAR
STARTCHAR char76
ENCODING 8748
SWIDTH 9000 0
DWIDTH 9 0
BBX 8 11 1 0
BITMAP
F8
FC
82
FE
BE
84
82
9E
BF
E0
80
ENDCHAR
STARTCHAR char77
ENCODING 8749
SWIDTH 10000 0
DWIDTH 10 0
BBX 9 15 1 -4
BITMAP
7F00
7F00
0300
0100
0F80
3F80
7000
6000
4000
C000
8000
8000
8000
8000
8000
ENDCHAR
STARTCHAR char78
ENCODING 8750
SWIDTH 10000 0
DWIDTH 10 0
BBX 9 18 1 -7
BITMAP
3F00
3F00
0080
1F80
3F80
6000
4000
BF00
BF00
2000
6F00
3980
1980
0980
0100
0200
0400
0800
ENDCHAR
STARTCHAR char79
ENCODING 8751
SWIDTH 10000 0
DWIDTH 10 0
BBX 8 16 1 -5
BITMAP
7F
7F
08
0C
3E
71
71
DB
8E
80
80
80
80
80
80
80
ENDCHAR
STARTCHAR char155
ENCODING 8752
SWIDTH 9000 0
DWIDTH 9 0
BBX 8 15 1 -4
BITMAP
FF
FF
C0
C0
7E
67
43
23
03
02
04
04
08
08
10
ENDCHAR
STARTCHAR char81
ENCODING 8753
SWIDTH 10000 0
DWIDTH 10 0
BBX 8 11 1 0
BITMAP
1F
3F
41
7F
7D
21
41
79
FF
07
01
ENDCHAR
STARTCHAR char77
ENCODING 8754
SWIDTH 10000 0
DWIDTH 10 0
BBX 9 15 1 -4
BITMAP
7F00
7F00
6000
4000
F800
FE00
0700
0300
0100
0180
0080
0080
0080
0080
0080
ENDCHAR
STARTCHAR char83
ENCODING 8755
SWIDTH 10000 0
DWIDTH 10 0
BBX 9 18 1 -7
BITMAP
FF00
FF00
4000
FC00
FE00
0300
0080
7F00
7E00
4000
CF00
7380
1180
0900
0200
0200
0400
0800
ENDCHAR
STARTCHAR char79
ENCODING 8756
SWIDTH 10000 0
DWIDTH 10 0
BBX 8 16 1 -5
BITMAP
FE
FE
10
30
7C
8E
8E
DB
71
01
01
01
01
01
01
01
ENDCHAR
STARTCHAR char85
ENCODING 8757
SWIDTH 10000 0
DWIDTH 10 0
BBX 9 10 1 1
BITMAP
F980
F980
4080
8080
8080
F880
FE80
0380
0180
0080
ENDCHAR
STARTCHAR char86
ENCODING 8758
SWIDTH 10000 0
DWIDTH 10 0
BBX 9 10 1 1
BITMAP
F980
F980
4180
C680
8C80
9880
FC80
FF80
0380
0080
ENDCHAR
STARTCHAR char85
ENCODING 8759
SWIDTH 10000 0
DWIDTH 10 0
BBX 9 10 1 1
BITMAP
FF80
FF80
4080
8080
8080
F880
FE80
0380
0180
0080
ENDCHAR
STARTCHAR char88
ENCODING 8760
SWIDTH 10000 0
DWIDTH 10 0
BBX 9 18 1 -7
BITMAP
FF80
7F80
4080
8080
F880
FF80
0080
3F00
3F00
2000
4700
3980
1980
0580
0100
0200
0400
0800
ENDCHAR
STARTCHAR char89
ENCODING 8761
SWIDTH 10000 0
DWIDTH 10 0
BBX 9 10 1 1
BITMAP
FD80
FD80
1080
1080
7880
DC80
8E80
CB80
7180
0080
ENDCHAR
STARTCHAR char90
ENCODING 8762
SWIDTH 10000 0
DWIDTH 10 0
BBX 10 12 1 1
BITMAP
00C0
0100
3F00
3F00
0800
0800
1F00
E380
61C0
30C0
1880
0F00
ENDCHAR
STARTCHAR char91
ENCODING 8763
SWIDTH 11000 0
DWIDTH 11 0
BBX 10 12 1 1
BITMAP
00C0
0080
7F00
7F00
0800
1C00
7F00
C980
8880
8880
8880
7700
ENDCHAR
STARTCHAR char92
ENCODING 8764
SWIDTH 11000 0
DWIDTH 11 0
BBX 10 13 1 0
BITMAP
00C0
0100
7F00
7E00
4000
5E00
7F00
C000
8000
BC00
FE00
0100
0080
ENDCHAR
STARTCHAR char93
ENCODING 8765
SWIDTH 11000 0
DWIDTH 11 0
BBX 10 19 1 -6
BITMAP
00C0
0100
7F00
7E00
4000
FE00
8000
BC00
FE00
0100
7E00
7C00
4000
CE00
7B00
1900
0900
0200
0400
ENDCHAR
STARTCHAR char94
ENCODING 8766
SWIDTH 10000 0
DWIDTH 10 0
BBX 9 11 1 0
BITMAP
7380
F300
9200
9100
3F80
3F80
2080
7C80
7E80
0380
0080
ENDCHAR
STARTCHAR char95
ENCODING 8767
SWIDTH 11000 0
DWIDTH 11 0
BBX 10 15 1 -4
BITMAP
1FC0
3FC0
6180
4F00
DB80
D180
D1C0
CEC0
4040
2040
0040
0040
0040
0040
0040
ENDCHAR
STARTCHAR char96
ENCODING 8768
SWIDTH 9000 0
DWIDTH 9 0
BBX 8 10 1 1
BITMAP
FF
FF
01
7D
FF
01
39
7D
87
01
ENDCHAR
STARTCHAR char97
ENCODING 8769
SWIDTH 10000 0
DWIDTH 10 0
BBX 9 12 1 -1
BITMAP
3E00
7E00
C300
8100
8100
8100
C600
4E00
0100
0080
0080
0080
ENDCHAR
STARTCHAR char98
ENCODING 8770
SWIDTH 11000 0
DWIDTH 11 0
BBX 9 10 1 1
BITMAP
ED80
6D80
4880
4880
4480
6E80
3B80
1180
0080
0080
ENDCHAR
STARTCHAR char99
ENCODING 8771
SWIDTH 11000 0
DWIDTH 11 0
BBX 10 10 1 1
BITMAP
7E00
7E00
0800
0800
3800
7C00
C600
0100
0080
0040
ENDCHAR
STARTCHAR char100
ENCODING 8772
SWIDTH 10000 0
DWIDTH 10 0
BBX 9 10 1 1
BITMAP
3980
7D80
C480
8480
8480
C480
5C80
1E80
0180
0080
ENDCHAR
STARTCHAR char101
ENCODING 8773
SWIDTH 10000 0
DWIDTH 10 0
BBX 9 15 1 -4
BITMAP
0F80
1F80
1880
1080
1980
5780
F080
1080
0880
0080
0080
0080
0080
0080
0080
ENDCHAR
STARTCHAR char101
ENCODING 8774
SWIDTH 10000 0
DWIDTH 10 0
BBX 9 15 1 -4
BITMAP
F800
FC00
8C00
8400
CC00
F500
8780
8400
8800
8000
8000
8000
8000
8000
8000
ENDCHAR
STARTCHAR char103
ENCODING 8775
SWIDTH 11000 0
DWIDTH 11 0
BBX 10 10 1 1
BITMAP
7EC0
7EC0
3840
6C40
C640
F340
79C0
0CC0
0440
0040
ENDCHAR
STARTCHAR char104
ENCODING 8776
SWIDTH 11000 0
DWIDTH 11 0
BBX 10 15 1 -4
BITMAP
7F00
7F00
3000
2000
4700
EF80
79C0
10C0
08C0
0180
0100
0300
0200
0400
0800
ENDCHAR
STARTCHAR char105
ENCODING 8777
SWIDTH 11000 0
DWIDTH 11 0
BBX 10 10 1 1
BITMAP
DEC0
DEC0
9C40
B640
9A40
8940
C940
78C0
3040
0040
ENDCHAR
STARTCHAR char106
ENCODING 8778
SWIDTH 11000 0
DWIDTH 11 0
BBX 10 15 1 -4
BITMAP
7F80
7F80
1480
6480
8280
0080
FC80
FE00
C200
C600
BB80
83C0
8400
8000
8000
ENDCHAR
STARTCHAR char99
ENCODING 8779
SWIDTH 11000 0
DWIDTH 11 0
BBX 10 10 1 1
BITMAP
7E00
7E00
0800
0800
3800
7C00
C600
0100
0080
0040
ENDCHAR
STARTCHAR char8780
ENCODING 8780
SWIDTH 12000 0
DWIDTH 12 0
BBX 10 9 1 0
BITMAP
FFC0
FFC0
FFC0
FFC0
FFC0
FFC0
FFC0
FFC0
FFC0
ENDCHAR
STARTCHAR char8781
ENCODING 8781
SWIDTH 12000 0
DWIDTH 12 0
BBX 10 9 1 0
BITMAP
FFC0
FFC0
FFC0
FFC0
FFC0
FFC0
FFC0
FFC0
FFC0
ENDCHAR
STARTCHAR char8782
ENCODING 8782
SWIDTH 12000 0
DWIDTH 12 0
BBX 10 9 1 0
BITMAP
FFC0
FFC0
FFC0
FFC0
FFC0
FFC0
FFC0
FFC0
FFC0
ENDCHAR
STARTCHAR char8783
ENCODING 8783
SWIDTH 12000 0
DWIDTH 12 0
BBX 10 9 1 0
BITMAP
FFC0
FFC0
FFC0
FFC0
FFC0
FFC0
FFC0
FFC0
FFC0
ENDCHAR
STARTCHAR char8784
ENCODING 8784
SWIDTH 12000 0
DWIDTH 12 0
BBX 10 9 1 0
BITMAP
FFC0
FFC0
FFC0
FFC0
FFC0
FFC0
FFC0
FFC0
FFC0
ENDCHAR
STARTCHAR char8784
ENCODING 8785
SWIDTH 11000 0
DWIDTH 11 0
BBX 9 8 1 3
BITMAP
AA80
0080
8000
0080
8000
0080
8000
AA80
ENDCHAR
STARTCHAR char33
ENCODING 8786
SWIDTH 12000 0
DWIDTH 12 0
BBX 7 7 5 -7
BITMAP
78
98
88
88
98
3C
02
ENDCHAR
STARTCHAR char107
ENCODING 8787
SWIDTH 10000 0
DWIDTH 10 0
BBX 9 6 1 5
BITMAP
7000
F800
8C00
8200
4100
0080
ENDCHAR
STARTCHAR char107
ENCODING 8788
SWIDTH 11000 0
DWIDTH 11 0
BBX 10 18 1 -7
BITMAP
7000
F800
8C00
8200
4100
0080
0000
0000
0000
0000
0000
0F00
1300
1100
1100
1300
0780
0040
ENDCHAR
STARTCHAR char108
ENCODING 8789
SWIDTH 11000 0
DWIDTH 11 0
BBX 10 7 1 -6
BITMAP
8000
4000
2180
1140
0840
07C0
0380
ENDCHAR
STARTCHAR char108
ENCODING 8790
SWIDTH 11000 0
DWIDTH 11 0
BBX 10 10 1 -7
BITMAP
0F00
1300
1100
9100
4300
2180
11C0
0840
06C0
0380
ENDCHAR
STARTCHAR char111
ENCODING 8791
SWIDTH 13000 0
DWIDTH 13 0
BBX 8 14 1 -3
BITMAP
0C
1E
31
43
80
00
00
00
00
00
01
79
FD
03
ENDCHAR
STARTCHAR char111
ENCODING 8792
SWIDTH 13000 0
DWIDTH 13 0
BBX 8 17 1 -6
BITMAP
0C
1E
31
43
84
00
00
01
79
FD
03
1C
3C
44
44
4C
1E
ENDCHAR
STARTCHAR char111
ENCODING 8793
SWIDTH 14000 0
DWIDTH 14 0
BBX 9 17 1 -6
BITMAP
0C00
1E00
3100
4700
8600
0000
0000
0000
0000
3980
7980
8880
8880
8880
C880
5E80
0180
ENDCHAR
STARTCHAR char111
ENCODING 8794
SWIDTH 14000 0
DWIDTH 14 0
BBX 9 18 1 -7
BITMAP
0C00
1E00
3100
4700
8600
3980
7980
8880
8880
8880
CC80
1E80
0180
1E00
3E00
2200
2600
0F00
ENDCHAR
STARTCHAR char109
ENCODING 8795
SWIDTH 10000 0
DWIDTH 10 0
BBX 9 5 0 5
BITMAP
F000
7C00
0600
0100
0080
ENDCHAR
STARTCHAR char112
ENCODING 8796
SWIDTH 10000 0
DWIDTH 10 0
BBX 9 6 0 5
BITMAP
F000
7800
0C00
F600
7F00
0080
ENDCHAR
STARTCHAR char110
ENCODING 8797
SWIDTH 12000 0
DWIDTH 12 0
BBX 13 5 0 6
BITMAP
0038
00F0
F980
1E00
0200
ENDCHAR
STARTCHAR char113
ENCODING 8798
SWIDTH 12000 0
DWIDTH 12 0
BBX 13 8 0 5
BITMAP
0030
00E0
E388
3E70
8DE0
7B00
0C00
0400
ENDCHAR
STARTCHAR char115
ENCODING 8799
SWIDTH 10000 0
DWIDTH 10 0
BBX 4 4 3 6
BITMAP
60
90
90
60
ENDCHAR
STARTCHAR char115
ENCODING 8800
SWIDTH 6000 0
DWIDTH 6 0
BBX 4 10 1 1
BITMAP
60
90
90
60
00
00
60
90
90
60
ENDCHAR
STARTCHAR char107
ENCODING 8801
SWIDTH 10000 0
DWIDTH 10 0
BBX 9 6 1 5
BITMAP
0700
0F80
1880
2080
4100
8000
ENDCHAR
STARTCHAR char107
ENCODING 8802
SWIDTH 11000 0
DWIDTH 11 0
BBX 10 18 1 -7
BITMAP
0700
0F80
1880
2080
4100
8000
0000
0000
0000
0000
0000
0F00
1300
1100
1100
1300
0780
0040
ENDCHAR
STARTCHAR char116
ENCODING 8803
SWIDTH 8000 0
DWIDTH 8 0
BBX 7 8 1 6
BITMAP
10
10
30
48
48
32
84
78
ENDCHAR
STARTCHAR char115
ENCODING 8804
SWIDTH 8000 0
DWIDTH 8 0
BBX 6 6 2 6
BITMAP
30
48
48
30
84
78
ENDCHAR
STARTCHAR char119
ENCODING 8805
SWIDTH 10000 0
DWIDTH 10 0
BBX 7 5 5 -4
BITMAP
E0
70
08
04
02
ENDCHAR
STARTCHAR char118
ENCODING 8806
SWIDTH 11000 0
DWIDTH 11 0
BBX 10 16 1 -5
BITMAP
3C00
7C00
8400
8600
6F00
1980
1080
1C80
0880
0080
0100
0100
0100
0100
0080
0040
ENDCHAR
STARTCHAR char120
ENCODING 8807
SWIDTH 8000 0
DWIDTH 8 0
BBX 4 7 4 9
BITMAP
40
40
40
80
B0
90
60
ENDCHAR
STARTCHAR char121
ENCODING 8808
SWIDTH 10000 0
DWIDTH 10 0
BBX 1 5 5 10
BITMAP
80
80
80
80
80
ENDCHAR
STARTCHAR char122
ENCODING 8809
SWIDTH 10000 0
DWIDTH 10 0
BBX 7 7 1 4
BITMAP
FE
44
28
10
38
44
FE
ENDCHAR
STARTCHAR char123
ENCODING 8810
SWIDTH 9000 0
DWIDTH 9 0
BBX 7 6 1 5
BITMAP
6C
D6
92
92
92
54
ENDCHAR
STARTCHAR char124
ENCODING 8811
SWIDTH 10000 0
DWIDTH 10 0
BBX 7 6 2 5
BITMAP
EE
AA
AA
AA
AA
BA
ENDCHAR
STARTCHAR char125
ENCODING 8812
SWIDTH 10000 0
DWIDTH 10 0
BBX 8 6 1 5
BITMAP
73
95
94
94
BC
04
ENDCHAR
STARTCHAR char8784
ENCODING 8813
SWIDTH 12000 0
DWIDTH 12 0
BBX 10 9 1 0
BITMAP
FFC0
FFC0
FFC0
FFC0
FFC0
FFC0
FFC0
FFC0
FFC0
ENDCHAR
STARTCHAR char8784
ENCODING 8814
SWIDTH 12000 0
DWIDTH 12 0
BBX 10 9 1 0
BITMAP
FFC0
FFC0
FFC0
FFC0
FFC0
FFC0
FFC0
FFC0
FFC0
ENDCHAR
STARTCHAR char8784
ENCODING 8815
SWIDTH 12000 0
DWIDTH 12 0
BBX 10 9 1 0
BITMAP
FFC0
FFC0
FFC0
FFC0
FFC0
FFC0
FFC0
FFC0
FFC0
ENDCHAR
STARTCHAR char8779
ENCODING 8816
SWIDTH 12000 0
DWIDTH 12 0
BBX 10 9 1 0
BITMAP
FFC0
FFC0
FFC0
FFC0
FFC0
FFC0
FFC0
FFC0
FFC0
ENDCHAR
STARTCHAR char8780
ENCODING 8817
SWIDTH 12000 0
DWIDTH 12 0
BBX 10 9 1 0
BITMAP
FFC0
FFC0
FFC0
FFC0
FFC0
FFC0
FFC0
FFC0
FFC0
ENDCHAR
STARTCHAR char8781
ENCODING 8818
SWIDTH 12000 0
DWIDTH 12 0
BBX 10 9 1 0
BITMAP
FFC0
FFC0
FFC0
FFC0
FFC0
FFC0
FFC0
FFC0
FFC0
ENDCHAR
STARTCHAR char8782
ENCODING 8819
SWIDTH 12000 0
DWIDTH 12 0
BBX 10 9 1 0
BITMAP
FFC0
FFC0
FFC0
FFC0
FFC0
FFC0
FFC0
FFC0
FFC0
ENDCHAR
STARTCHAR char8783
ENCODING 8820
SWIDTH 12000 0
DWIDTH 12 0
BBX 10 9 1 0
BITMAP
FFC0
FFC0
FFC0
FFC0
FFC0
FFC0
FFC0
FFC0
FFC0
ENDCHAR
STARTCHAR char8779
ENCODING 8821
SWIDTH 12000 0
DWIDTH 12 0
BBX 10 9 1 0
BITMAP
FFC0
FFC0
FFC0
FFC0
FFC0
FFC0
FFC0
FFC0
FFC0
ENDCHAR
STARTCHAR char8780
ENCODING 8822
SWIDTH 12000 0
DWIDTH 12 0
BBX 10 9 1 0
BITMAP
FFC0
FFC0
FFC0
FFC0
FFC0
FFC0
FFC0
FFC0
FFC0
ENDCHAR
STARTCHAR char8781
ENCODING 8823
SWIDTH 12000 0
DWIDTH 12 0
BBX 10 9 1 0
BITMAP
FFC0
FFC0
FFC0
FFC0
FFC0
FFC0
FFC0
FFC0
FFC0
ENDCHAR
STARTCHAR char8782
ENCODING 8824
SWIDTH 12000 0
DWIDTH 12 0
BBX 10 9 1 0
BITMAP
FFC0
FFC0
FFC0
FFC0
FFC0
FFC0
FFC0
FFC0
FFC0
ENDCHAR
STARTCHAR char8783
ENCODING 8825
SWIDTH 12000 0
DWIDTH 12 0
BBX 10 9 1 0
BITMAP
FFC0
FFC0
FFC0
FFC0
FFC0
FFC0
FFC0
FFC0
FFC0
ENDCHAR
STARTCHAR char8779
ENCODING 8826
SWIDTH 12000 0
DWIDTH 12 0
BBX 10 9 1 0
BITMAP
FFC0
FFC0
FFC0
FFC0
FFC0
FFC0
FFC0
FFC0
FFC0
ENDCHAR
STARTCHAR char8780
ENCODING 8827
SWIDTH 12000 0
DWIDTH 12 0
BBX 10 9 1 0
BITMAP
FFC0
FFC0
FFC0
FFC0
FFC0
FFC0
FFC0
FFC0
FFC0
ENDCHAR
STARTCHAR char8781
ENCODING 8828
SWIDTH 12000 0
DWIDTH 12 0
BBX 10 9 1 0
BITMAP
FFC0
FFC0
FFC0
FFC0
FFC0
FFC0
FFC0
FFC0
FFC0
ENDCHAR
STARTCHAR char8782
ENCODING 8829
SWIDTH 12000 0
DWIDTH 12 0
BBX 10 9 1 0
BITMAP
FFC0
FFC0
FFC0
FFC0
FFC0
FFC0
FFC0
FFC0
FFC0
ENDCHAR
STARTCHAR char8783
ENCODING 8830
SWIDTH 12000 0
DWIDTH 12 0
BBX 10 9 1 0
BITMAP
FFC0
FFC0
FFC0
FFC0
FFC0
FFC0
FFC0
FFC0
FFC0
ENDCHAR
STARTCHAR char1
ENCODING 8993
SWIDTH 10000 0
DWIDTH 10 0
BBX 9 8 1 3
BITMAP
7F80
7F80
1980
6480
C480
0280
0280
0080
ENDCHAR
STARTCHAR char2
ENCODING 8994
SWIDTH 10000 0
DWIDTH 10 0
BBX 9 8 1 3
BITMAP
7F80
FF80
C480
8880
8C80
8F80
8080
8000
ENDCHAR
STARTCHAR char3
ENCODING 8995
SWIDTH 9000 0
DWIDTH 9 0
BBX 8 8 1 3
BITMAP
FF
FF
4D
85
F5
FD
05
01
ENDCHAR
STARTCHAR char4
ENCODING 8996
SWIDTH 9000 0
DWIDTH 9 0
BBX 8 14 1 -3
BITMAP
FF
FF
45
C5
FD
05
7E
7C
40
4E
79
11
02
04
ENDCHAR
STARTCHAR char5
ENCODING 8997
SWIDTH 9000 0
DWIDTH 9 0
BBX 8 7 1 4
BITMAP
7F
7F
40
40
FC
FE
01
ENDCHAR
STARTCHAR char6
ENCODING 8998
SWIDTH 9000 0
DWIDTH 9 0
BBX 8 8 1 3
BITMAP
7E
7E
10
18
FE
41
61
3E
ENDCHAR
STARTCHAR char7
ENCODING 8999
SWIDTH 10000 0
DWIDTH 10 0
BBX 9 8 1 3
BITMAP
7F00
7F00
0800
7F00
C980
8880
8880
7700
ENDCHAR
STARTCHAR char8
ENCODING 9000
SWIDTH 10000 0
DWIDTH 10 0
BBX 9 8 1 3
BITMAP
7F00
FF00
8000
FE00
8000
FC00
C300
0080
ENDCHAR
STARTCHAR char9001
ENCODING 9001
SWIDTH 12000 0
DWIDTH 12 0
BBX 10 9 1 0
BITMAP
FFC0
FFC0
FFC0
FFC0
FFC0
FFC0
FFC0
FFC0
FFC0
ENDCHAR
STARTCHAR char10
ENCODING 9002
SWIDTH 9000 0
DWIDTH 9 0
BBX 8 11 1 0
BITMAP
7C
FC
84
8E
5F
23
21
19
02
04
08
ENDCHAR
STARTCHAR char11
ENCODING 9003
SWIDTH 9000 0
DWIDTH 9 0
BBX 8 8 1 3
BITMAP
FF
FF
03
7A
E6
C4
40
20
ENDCHAR
STARTCHAR char12
ENCODING 9004
SWIDTH 10000 0
DWIDTH 10 0
BBX 9 9 1 2
BITMAP
FE00
FF00
8100
FE00
8100
8100
BF80
F000
C000
ENDCHAR
STARTCHAR char13
ENCODING 9005
SWIDTH 9000 0
DWIDTH 9 0
BBX 8 9 1 2
BITMAP
7F
7F
02
01
3F
60
40
40
80
ENDCHAR
STARTCHAR char14
ENCODING 9006
SWIDTH 10000 0
DWIDTH 10 0
BBX 10 14 0 -3
BITMAP
3F80
3F80
00C0
3FC0
4000
BF80
1F80
1000
2780
3CC0
0C40
0480
0100
0200
ENDCHAR
STARTCHAR char20
ENCODING 9007
SWIDTH 9000 0
DWIDTH 9 0
BBX 8 10 1 1
BITMAP
7E
7E
08
1E
31
71
4E
80
80
80
ENDCHAR
STARTCHAR char11
ENCODING 9008
SWIDTH 9000 0
DWIDTH 9 0
BBX 8 8 1 3
BITMAP
FF
FF
C0
5E
67
23
02
04
ENDCHAR
STARTCHAR char12
ENCODING 9009
SWIDTH 10000 0
DWIDTH 10 0
BBX 9 9 1 2
BITMAP
3F80
7F80
4080
3F80
4080
4080
FE80
0780
0180
ENDCHAR
STARTCHAR char13
ENCODING 9010
SWIDTH 9000 0
DWIDTH 9 0
BBX 8 9 1 2
BITMAP
FE
FE
40
80
FC
06
02
01
01
ENDCHAR
STARTCHAR char19
ENCODING 9011
SWIDTH 8000 0
DWIDTH 8 0
BBX 8 15 1 -4
BITMAP
FE
FE
80
BC
FE
01
FE
7E
40
9E
F3
31
12
04
08
ENDCHAR
STARTCHAR char20
ENCODING 9012
SWIDTH 9000 0
DWIDTH 9 0
BBX 8 10 1 1
BITMAP
7E
7E
10
78
8C
8E
72
01
01
01
ENDCHAR
STARTCHAR char21
ENCODING 9013
SWIDTH 10000 0
DWIDTH 10 0
BBX 9 7 1 4
BITMAP
F980
7980
8080
8080
FC80
FE80
0180
ENDCHAR
STARTCHAR char21
ENCODING 9014
SWIDTH 10000 0
DWIDTH 10 0
BBX 9 7 1 4
BITMAP
F980
7980
8280
8480
FC80
FE80
0180
ENDCHAR
STARTCHAR char21
ENCODING 9015
SWIDTH 10000 0
DWIDTH 10 0
BBX 9 7 1 4
BITMAP
FF80
7F80
8080
8080
FC80
FE80
0180
ENDCHAR
STARTCHAR char24
ENCODING 9016
SWIDTH 10000 0
DWIDTH 10 0
BBX 9 15 1 -4
BITMAP
FF80
7F80
4080
C080
FE80
0180
7F00
7E00
2000
4F00
7980
3980
0900
0200
0400
ENDCHAR
STARTCHAR char25
ENCODING 9017
SWIDTH 10000 0
DWIDTH 10 0
BBX 9 8 1 3
BITMAP
FD80
FD80
1080
7C80
8E80
8A80
7180
0080
ENDCHAR
STARTCHAR char6
ENCODING 9018
SWIDTH 10000 0
DWIDTH 10 0
BBX 9 10 1 3
BITMAP
0180
0200
7E00
7E00
1000
1800
FE00
4100
6100
3E00
ENDCHAR
STARTCHAR char7
ENCODING 9019
SWIDTH 11000 0
DWIDTH 11 0
BBX 10 10 1 3
BITMAP
00C0
0100
7F00
7F00
0800
7F00
C980
8880
8880
7700
ENDCHAR
STARTCHAR char8
ENCODING 9020
SWIDTH 11000 0
DWIDTH 11 0
BBX 10 10 1 3
BITMAP
00C0
0100
7F00
FF00
8000
FE00
8000
FC00
C300
0080
ENDCHAR
STARTCHAR char29
ENCODING 9021
SWIDTH 11000 0
DWIDTH 11 0
BBX 10 17 1 -4
BITMAP
00C0
0100
7F00
7E00
4000
7E00
8000
FE00
0100
7E80
2000
4700
7F80
3180
0900
0200
0400
ENDCHAR
STARTCHAR char30
ENCODING 9022
SWIDTH 10000 0
DWIDTH 10 0
BBX 3 7 7 5
BITMAP
20
20
60
A0
A0
60
20
ENDCHAR
STARTCHAR char31
ENCODING 9023
SWIDTH 9000 0
DWIDTH 9 0
BBX 8 10 1 1
BITMAP
3F
3F
63
5D
BE
A3
DD
61
01
01
ENDCHAR
STARTCHAR char32
ENCODING 9024
SWIDTH 9000 0
DWIDTH 9 0
BBX 8 8 1 3
BITMAP
FF
FF
01
7F
01
79
FD
03
ENDCHAR
STARTCHAR char252
ENCODING 9025
SWIDTH 11000 0
DWIDTH 11 0
BBX 10 8 1 3
BITMAP
3F00
7F00
8100
8100
C200
4F00
0180
0040
ENDCHAR
STARTCHAR char34
ENCODING 9026
SWIDTH 12000 0
DWIDTH 12 0
BBX 10 7 1 4
BITMAP
0080
0080
F100
8F40
6080
3B00
1E00
ENDCHAR
STARTCHAR char35
ENCODING 9027
SWIDTH 10000 0
DWIDTH 10 0
BBX 8 5 2 6
BITMAP
01
01
79
FF
03
ENDCHAR
STARTCHAR char36
ENCODING 9028
SWIDTH 10000 0
DWIDTH 10 0
BBX 9 8 1 3
BITMAP
3980
7980
8480
8480
8480
CC80
5E80
0180
ENDCHAR
STARTCHAR char37
ENCODING 9029
SWIDTH 10000 0
DWIDTH 10 0
BBX 9 7 1 4
BITMAP
0F80
1F80
1080
1980
EF80
F080
0080
ENDCHAR
STARTCHAR char37
ENCODING 9030
SWIDTH 10000 0
DWIDTH 10 0
BBX 9 7 1 4
BITMAP
F800
FC00
8400
CC00
FB80
8780
8000
ENDCHAR
STARTCHAR char39
ENCODING 9031
SWIDTH 9000 0
DWIDTH 9 0
BBX 8 7 1 4
BITMAP
FB
FB
49
85
E3
31
09
ENDCHAR
STARTCHAR char40
ENCODING 9032
SWIDTH 9000 0
DWIDTH 9 0
BBX 8 9 1 2
BITMAP
FE
FE
40
9E
F3
31
13
02
04
ENDCHAR
STARTCHAR char41
ENCODING 9033
SWIDTH 10000 0
DWIDTH 10 0
BBX 9 9 1 2
BITMAP
DD80
DD80
8880
B480
9A80
8A80
C980
7180
0080
ENDCHAR
STARTCHAR char42
ENCODING 9034
SWIDTH 11000 0
DWIDTH 11 0
BBX 10 13 1 -2
BITMAP
7F80
7F80
1980
6480
C480
0080
7C80
7E00
4200
6600
7E00
43C0
4200
ENDCHAR
STARTCHAR char253
ENCODING 9035
SWIDTH 10000 0
DWIDTH 10 0
BBX 9 9 1 2
BITMAP
7380
F300
9100
BF80
3F80
6080
7E80
0780
0080
ENDCHAR
STARTCHAR char254
ENCODING 9036
SWIDTH 10000 0
DWIDTH 10 0
BBX 9 8 1 3
BITMAP
DD80
DD80
4880
8880
8C80
7680
0180
0080
ENDCHAR
STARTCHAR char255
ENCODING 9037
SWIDTH 10000 0
DWIDTH 10 0
BBX 9 8 1 3
BITMAP
7F00
7F00
0800
0800
3C00
7E00
8100
0080
ENDCHAR
STARTCHAR char9039
ENCODING 9038
SWIDTH 12000 0
DWIDTH 12 0
BBX 10 9 1 0
BITMAP
FFC0
FFC0
FFC0
FFC0
FFC0
FFC0
FFC0
FFC0
FFC0
ENDCHAR
STARTCHAR char8525
ENCODING 9039
SWIDTH 11000 0
DWIDTH 11 0
BBX 10 9 1 2
BITMAP
C0C0
6180
3300
1600
0C00
1C00
2200
4100
8080
ENDCHAR
STARTCHAR char8550
ENCODING 9040
SWIDTH 12000 0
DWIDTH 12 0
BBX 11 11 1 0
BITMAP
0600
6660
70C0
3180
1B00
CE60
CE60
1300
2180
4CC0
0C00
ENDCHAR
STARTCHAR char9042
ENCODING 9041
SWIDTH 13000 0
DWIDTH 13 0
BBX 12 8 1 2
BITMAP
1F80
79E0
E070
C030
C030
E070
79E0
1F80
ENDCHAR
STARTCHAR char9043
ENCODING 9042
SWIDTH 10000 0
DWIDTH 10 0
BBX 9 6 1 4
BITMAP
3E00
4100
8080
8080
4100
3E00
ENDCHAR
STARTCHAR char9044
ENCODING 9043
SWIDTH 17000 0
DWIDTH 17 0
BBX 11 13 1 -2
BITMAP
0600
0780
0040
1F20
31A0
20E0
60C0
E080
B180
9F00
4000
3C00
0C00
ENDCHAR
STARTCHAR char9045
ENCODING 9044
SWIDTH 10000 0
DWIDTH 10 0
BBX 9 9 1 1
BITMAP
3E00
4100
9C80
A280
AA80
AA80
9C80
4100
3E00
ENDCHAR
STARTCHAR char9046
ENCODING 9045
SWIDTH 10000 0
DWIDTH 10 0
BBX 9 18 1 -7
BITMAP
0800
5D00
2A00
2A00
3E00
1C00
0800
0800
3E00
6300
4100
4100
4100
4100
4100
FF80
C180
FF80
ENDCHAR
STARTCHAR char9046
ENCODING 9046
SWIDTH 10000 0
DWIDTH 10 0
BBX 9 20 1 -9
BITMAP
0800
5D00
2A00
2A00
1C00
0800
3E00
4900
B180
CA80
9480
AA80
4500
3E00
0800
1C00
2A00
2A00
5D00
0800
ENDCHAR
STARTCHAR char9048
ENCODING 9047
SWIDTH 24000 0
DWIDTH 24 0
BBX 15 8 1 -10
BITMAP
8002
9112
F93E
AFEA
A92A
4924
7FFC
9552
ENDCHAR
STARTCHAR char9046
ENCODING 9048
SWIDTH 22000 0
DWIDTH 22 0
BBX 21 21 1 -10
BITMAP
002000
017400
00A800
00A800
007000
002000
00F800
412410
32C660
4B2A90
FE53F8
4AAA90
328660
411410
00F800
002000
007000
00A800
00A800
017400
002000
ENDCHAR
STARTCHAR char9050
ENCODING 9049
SWIDTH 10000 0
DWIDTH 10 0
BBX 9 18 1 -7
BITMAP
0800
5D00
2A00
2A00
2A00
1C00
0800
FF80
8080
FF80
8080
4100
4100
2200
2200
1400
1400
0800
ENDCHAR
STARTCHAR char9051
ENCODING 9050
SWIDTH 11000 0
DWIDTH 11 0
BBX 10 11 1 0
BITMAP
0C00
1E00
2100
4C80
A140
9E40
8040
8040
8040
4080
3F00
ENDCHAR
STARTCHAR char9053
ENCODING 9051
SWIDTH 11000 0
DWIDTH 11 0
BBX 10 10 1 1
BITMAP
3F00
6180
CCC0
80C0
9940
A640
C0C0
CCC0
6180
3F00
ENDCHAR
STARTCHAR char9053
ENCODING 9052
SWIDTH 11000 0
DWIDTH 11 0
BBX 10 10 1 1
BITMAP
3F00
4080
A840
A340
94C0
8840
A540
8440
4880
3F00
ENDCHAR
STARTCHAR char9053
ENCODING 9053
SWIDTH 11000 0
DWIDTH 11 0
BBX 10 10 1 1
BITMAP
3F00
4480
A940
8840
CB40
B4C0
8440
A540
4880
3F00
ENDCHAR
STARTCHAR char9039
ENCODING 9054
SWIDTH 12000 0
DWIDTH 12 0
BBX 10 9 1 0
BITMAP
FFC0
FFC0
FFC0
FFC0
FFC0
FFC0
FFC0
FFC0
FFC0
ENDCHAR
STARTCHAR char9039
ENCODING 9055
SWIDTH 12000 0
DWIDTH 12 0
BBX 10 9 1 0
BITMAP
FFC0
FFC0
FFC0
FFC0
FFC0
FFC0
FFC0
FFC0
FFC0
ENDCHAR
STARTCHAR char8526
ENCODING 9056
SWIDTH 13000 0
DWIDTH 13 0
BBX 12 11 1 -1
BITMAP
1980
0F00
0600
0F00
1980
0000
CF30
79E0
30C0
79E0
CF30
ENDCHAR
STARTCHAR char8779
ENCODING 9057
SWIDTH 12000 0
DWIDTH 12 0
BBX 10 9 1 0
BITMAP
FFC0
FFC0
FFC0
FFC0
FFC0
FFC0
FFC0
FFC0
FFC0
ENDCHAR
STARTCHAR char8780
ENCODING 9058
SWIDTH 12000 0
DWIDTH 12 0
BBX 10 9 1 0
BITMAP
FFC0
FFC0
FFC0
FFC0
FFC0
FFC0
FFC0
FFC0
FFC0
ENDCHAR
STARTCHAR char8781
ENCODING 9059
SWIDTH 12000 0
DWIDTH 12 0
BBX 10 9 1 0
BITMAP
FFC0
FFC0
FFC0
FFC0
FFC0
FFC0
FFC0
FFC0
FFC0
ENDCHAR
STARTCHAR char8782
ENCODING 9060
SWIDTH 12000 0
DWIDTH 12 0
BBX 10 9 1 0
BITMAP
FFC0
FFC0
FFC0
FFC0
FFC0
FFC0
FFC0
FFC0
FFC0
ENDCHAR
STARTCHAR char8783
ENCODING 9061
SWIDTH 12000 0
DWIDTH 12 0
BBX 10 9 1 0
BITMAP
FFC0
FFC0
FFC0
FFC0
FFC0
FFC0
FFC0
FFC0
FFC0
ENDCHAR
STARTCHAR char8779
ENCODING 9062
SWIDTH 12000 0
DWIDTH 12 0
BBX 10 9 1 0
BITMAP
FFC0
FFC0
FFC0
FFC0
FFC0
FFC0
FFC0
FFC0
FFC0
ENDCHAR
STARTCHAR char8780
ENCODING 9063
SWIDTH 12000 0
DWIDTH 12 0
BBX 10 9 1 0
BITMAP
FFC0
FFC0
FFC0
FFC0
FFC0
FFC0
FFC0
FFC0
FFC0
ENDCHAR
STARTCHAR char8781
ENCODING 9064
SWIDTH 12000 0
DWIDTH 12 0
BBX 10 9 1 0
BITMAP
FFC0
FFC0
FFC0
FFC0
FFC0
FFC0
FFC0
FFC0
FFC0
ENDCHAR
STARTCHAR char8782
ENCODING 9065
SWIDTH 12000 0
DWIDTH 12 0
BBX 10 9 1 0
BITMAP
FFC0
FFC0
FFC0
FFC0
FFC0
FFC0
FFC0
FFC0
FFC0
ENDCHAR
STARTCHAR char8783
ENCODING 9066
SWIDTH 12000 0
DWIDTH 12 0
BBX 10 9 1 0
BITMAP
FFC0
FFC0
FFC0
FFC0
FFC0
FFC0
FFC0
FFC0
FFC0
ENDCHAR
STARTCHAR char8779
ENCODING 9067
SWIDTH 12000 0
DWIDTH 12 0
BBX 10 9 1 0
BITMAP
FFC0
FFC0
FFC0
FFC0
FFC0
FFC0
FFC0
FFC0
FFC0
ENDCHAR
STARTCHAR char8780
ENCODING 9068
SWIDTH 12000 0
DWIDTH 12 0
BBX 10 9 1 0
BITMAP
FFC0
FFC0
FFC0
FFC0
FFC0
FFC0
FFC0
FFC0
FFC0
ENDCHAR
STARTCHAR char8781
ENCODING 9069
SWIDTH 12000 0
DWIDTH 12 0
BBX 10 9 1 0
BITMAP
FFC0
FFC0
FFC0
FFC0
FFC0
FFC0
FFC0
FFC0
FFC0
ENDCHAR
STARTCHAR char8782
ENCODING 9070
SWIDTH 12000 0
DWIDTH 12 0
BBX 10 9 1 0
BITMAP
FFC0
FFC0
FFC0
FFC0
FFC0
FFC0
FFC0
FFC0
FFC0
ENDCHAR
STARTCHAR char8783
ENCODING 9071
SWIDTH 12000 0
DWIDTH 12 0
BBX 10 9 1 0
BITMAP
FFC0
FFC0
FFC0
FFC0
FFC0
FFC0
FFC0
FFC0
FFC0
ENDCHAR
STARTCHAR char8779
ENCODING 9072
SWIDTH 12000 0
DWIDTH 12 0
BBX 10 9 1 0
BITMAP
FFC0
FFC0
FFC0
FFC0
FFC0
FFC0
FFC0
FFC0
FFC0
ENDCHAR
STARTCHAR char8780
ENCODING 9073
SWIDTH 12000 0
DWIDTH 12 0
BBX 10 9 1 0
BITMAP
FFC0
FFC0
FFC0
FFC0
FFC0
FFC0
FFC0
FFC0
FFC0
ENDCHAR
STARTCHAR char8781
ENCODING 9074
SWIDTH 12000 0
DWIDTH 12 0
BBX 10 9 1 0
BITMAP
FFC0
FFC0
FFC0
FFC0
FFC0
FFC0
FFC0
FFC0
FFC0
ENDCHAR
STARTCHAR char8782
ENCODING 9075
SWIDTH 12000 0
DWIDTH 12 0
BBX 10 9 1 0
BITMAP
FFC0
FFC0
FFC0
FFC0
FFC0
FFC0
FFC0
FFC0
FFC0
ENDCHAR
STARTCHAR char8783
ENCODING 9076
SWIDTH 12000 0
DWIDTH 12 0
BBX 10 9 1 0
BITMAP
FFC0
FFC0
FFC0
FFC0
FFC0
FFC0
FFC0
FFC0
FFC0
ENDCHAR
STARTCHAR char8779
ENCODING 9077
SWIDTH 12000 0
DWIDTH 12 0
BBX 10 9 1 0
BITMAP
FFC0
FFC0
FFC0
FFC0
FFC0
FFC0
FFC0
FFC0
FFC0
ENDCHAR
STARTCHAR char8780
ENCODING 9078
SWIDTH 12000 0
DWIDTH 12 0
BBX 10 9 1 0
BITMAP
FFC0
FFC0
FFC0
FFC0
FFC0
FFC0
FFC0
FFC0
FFC0
ENDCHAR
STARTCHAR char8781
ENCODING 9079
SWIDTH 12000 0
DWIDTH 12 0
BBX 10 9 1 0
BITMAP
FFC0
FFC0
FFC0
FFC0
FFC0
FFC0
FFC0
FFC0
FFC0
ENDCHAR
STARTCHAR char8782
ENCODING 9080
SWIDTH 12000 0
DWIDTH 12 0
BBX 10 9 1 0
BITMAP
FFC0
FFC0
FFC0
FFC0
FFC0
FFC0
FFC0
FFC0
FFC0
ENDCHAR
STARTCHAR char8783
ENCODING 9081
SWIDTH 12000 0
DWIDTH 12 0
BBX 10 9 1 0
BITMAP
FFC0
FFC0
FFC0
FFC0
FFC0
FFC0
FFC0
FFC0
FFC0
ENDCHAR
STARTCHAR char8779
ENCODING 9082
SWIDTH 12000 0
DWIDTH 12 0
BBX 10 9 1 0
BITMAP
FFC0
FFC0
FFC0
FFC0
FFC0
FFC0
FFC0
FFC0
FFC0
ENDCHAR
STARTCHAR char8780
ENCODING 9083
SWIDTH 12000 0
DWIDTH 12 0
BBX 10 9 1 0
BITMAP
FFC0
FFC0
FFC0
FFC0
FFC0
FFC0
FFC0
FFC0
FFC0
ENDCHAR
STARTCHAR char8781
ENCODING 9084
SWIDTH 12000 0
DWIDTH 12 0
BBX 10 9 1 0
BITMAP
FFC0
FFC0
FFC0
FFC0
FFC0
FFC0
FFC0
FFC0
FFC0
ENDCHAR
STARTCHAR char8782
ENCODING 9085
SWIDTH 12000 0
DWIDTH 12 0
BBX 10 9 1 0
BITMAP
FFC0
FFC0
FFC0
FFC0
FFC0
FFC0
FFC0
FFC0
FFC0
ENDCHAR
STARTCHAR char8783
ENCODING 9086
SWIDTH 12000 0
DWIDTH 12 0
BBX 10 9 1 0
BITMAP
FFC0
FFC0
FFC0
FFC0
FFC0
FFC0
FFC0
FFC0
FFC0
ENDCHAR
STARTCHAR char128
ENCODING 9249
SWIDTH 10000 0
DWIDTH 10 0
BBX 9 15 1 -4
BITMAP
7F80
7F80
1980
6480
C680
0280
0080
0080
0080
0080
0080
0080
0180
0280
0180
ENDCHAR
STARTCHAR char129
ENCODING 9250
SWIDTH 10000 0
DWIDTH 10 0
BBX 9 14 1 -3
BITMAP
7F80
FF80
9980
9080
9E80
9F80
8080
8080
8180
8280
8180
8080
8000
8000
ENDCHAR
STARTCHAR char130
ENCODING 9251
SWIDTH 9000 0
DWIDTH 9 0
BBX 8 16 1 -5
BITMAP
FF
FF
45
85
F5
FD
0D
05
01
01
01
01
03
05
03
01
ENDCHAR
STARTCHAR char131
ENCODING 9252
SWIDTH 9000 0
DWIDTH 9 0
BBX 8 14 1 -3
BITMAP
7E
7E
10
18
2E
C3
41
61
32
1E
02
06
0A
06
ENDCHAR
STARTCHAR char132
ENCODING 9253
SWIDTH 10000 0
DWIDTH 10 0
BBX 9 16 1 -5
BITMAP
3E00
7E00
8200
8600
4F00
5180
3180
1D80
0980
0100
0200
0200
0400
0C00
1400
0C00
ENDCHAR
STARTCHAR char133
ENCODING 9254
SWIDTH 9000 0
DWIDTH 9 0
BBX 8 18 1 -7
BITMAP
FF
FF
C0
C0
7E
47
43
03
03
02
04
04
08
10
10
30
50
30
ENDCHAR
STARTCHAR char134
ENCODING 9255
SWIDTH 10000 0
DWIDTH 10 0
BBX 9 18 1 -7
BITMAP
FF00
FF00
4000
8000
F800
FE00
0E00
0300
0100
0180
0080
0080
0080
0080
0180
0280
0180
0080
ENDCHAR
STARTCHAR char135
ENCODING 9256
SWIDTH 11000 0
DWIDTH 11 0
BBX 10 17 1 -4
BITMAP
00C0
0100
3F00
3F00
0800
0800
1F00
E380
61C0
30C0
1880
1F00
0100
0300
0500
0300
0100
ENDCHAR
STARTCHAR char136
ENCODING 9257
SWIDTH 11000 0
DWIDTH 11 0
BBX 10 18 1 -5
BITMAP
00C0
0100
7F00
7F00
0800
0800
7F00
FF80
8880
8880
8880
4900
3700
0100
0300
0500
0300
0100
ENDCHAR
STARTCHAR char137
ENCODING 9258
SWIDTH 10000 0
DWIDTH 10 0
BBX 9 17 1 -6
BITMAP
1F80
3F80
6380
4F00
D100
D180
CF80
C080
6080
2080
0080
0080
0080
0180
0280
0180
0080
ENDCHAR
STARTCHAR char138
ENCODING 9259
SWIDTH 9000 0
DWIDTH 9 0
BBX 8 14 1 -3
BITMAP
FF
FF
01
7D
7F
01
1D
7F
83
01
03
05
03
01
ENDCHAR
STARTCHAR char139
ENCODING 9260
SWIDTH 10000 0
DWIDTH 10 0
BBX 9 14 1 -3
BITMAP
7E00
7E00
0800
0800
3800
7C00
C600
0300
0180
0080
0180
0280
0180
0080
ENDCHAR
STARTCHAR char140
ENCODING 9261
SWIDTH 10000 0
DWIDTH 10 0
BBX 9 14 1 -3
BITMAP
3980
7980
8880
8880
8880
C880
5C80
1E80
0180
0080
0180
0280
0180
0080
ENDCHAR
STARTCHAR char162
ENCODING 9262
SWIDTH 10000 0
DWIDTH 10 0
BBX 9 16 1 -5
BITMAP
0F80
1F80
1180
1080
1980
1F80
F080
3080
0880
0080
0080
0080
0180
0280
0180
0080
ENDCHAR
STARTCHAR char142
ENCODING 9263
SWIDTH 10000 0
DWIDTH 10 0
BBX 9 14 1 -3
BITMAP
7D80
7D80
4C80
8680
E280
F980
1980
0480
0080
0080
0180
0280
0180
0080
ENDCHAR
STARTCHAR char143
ENCODING 9264
SWIDTH 9000 0
DWIDTH 9 0
BBX 8 17 1 -6
BITMAP
FE
FE
40
9E
FF
31
11
0A
02
04
04
08
08
18
28
18
08
ENDCHAR
STARTCHAR char144
ENCODING 9280
SWIDTH 11000 0
DWIDTH 11 0
BBX 11 13 1 -2
BITMAP
7F80
7F80
1980
6480
C480
0280
0080
0080
F180
4F20
2040
1F80
0F00
ENDCHAR
STARTCHAR char145
ENCODING 9281
SWIDTH 11000 0
DWIDTH 11 0
BBX 11 13 1 -2
BITMAP
7F80
FF80
9180
9080
9C80
9F80
8180
8080
B880
A720
9040
8F80
8700
ENDCHAR
STARTCHAR char146
ENCODING 9282
SWIDTH 10000 0
DWIDTH 10 0
BBX 10 14 1 -3
BITMAP
FF00
FF00
4D00
8500
F500
FD00
0D00
0500
0100
E100
9E40
4080
3F00
1E00
ENDCHAR
STARTCHAR char147
ENCODING 9283
SWIDTH 12000 0
DWIDTH 12 0
BBX 12 14 1 -3
BITMAP
F980
F980
4080
8080
F080
FC80
0680
0180
0080
F090
4F20
2040
1F80
0F00
ENDCHAR
STARTCHAR char147
ENCODING 9284
SWIDTH 12000 0
DWIDTH 12 0
BBX 12 14 1 -3
BITMAP
F980
F980
4380
8680
FC80
FC80
0680
0180
0080
F090
4F20
2040
1F80
0F00
ENDCHAR
STARTCHAR char147
ENCODING 9285
SWIDTH 12000 0
DWIDTH 12 0
BBX 12 14 1 -3
BITMAP
FF80
FF80
4080
8080
F080
FC80
0680
0180
0080
F090
4F20
2040
1F80
0F00
ENDCHAR
STARTCHAR char150
ENCODING 9286
SWIDTH 11000 0
DWIDTH 11 0
BBX 11 15 1 -4
BITMAP
FD80
FD80
1080
7880
FC80
8E80
9280
6180
0080
0080
F120
4E40
2080
1F00
0E00
ENDCHAR
STARTCHAR char147
ENCODING 9287
SWIDTH 11000 0
DWIDTH 11 0
BBX 11 18 1 -7
BITMAP
F980
F980
4380
8680
FC80
FC80
0680
0180
0080
F080
4F20
2040
1F80
0F80
0080
0180
0280
0180
ENDCHAR
STARTCHAR char152
ENCODING 9296
SWIDTH 10000 0
DWIDTH 10 0
BBX 9 13 1 -2
BITMAP
7F80
7F80
1980
6480
C480
0280
0080
0080
0080
7880
FE80
0380
0080
ENDCHAR
STARTCHAR char153
ENCODING 9297
SWIDTH 10000 0
DWIDTH 10 0
BBX 9 14 1 -3
BITMAP
7F80
FF80
9980
9080
9080
9E80
8F80
8080
9E80
BF80
8180
8080
8000
8000
ENDCHAR
STARTCHAR char154
ENCODING 9298
SWIDTH 9000 0
DWIDTH 9 0
BBX 8 13 1 -2
BITMAP
FF
FF
4D
85
F5
FD
05
01
01
79
FF
03
01
ENDCHAR
STARTCHAR char155
ENCODING 9299
SWIDTH 9000 0
DWIDTH 9 0
BBX 8 15 1 -4
BITMAP
FF
FF
C0
C0
7E
67
43
23
03
02
04
04
78
FC
06
ENDCHAR
STARTCHAR char156
ENCODING 9300
SWIDTH 8000 0
DWIDTH 8 0
BBX 7 14 1 -3
BITMAP
3E
7E
82
82
FE
42
82
F2
FA
06
72
FA
06
02
ENDCHAR
STARTCHAR char157
ENCODING 9301
SWIDTH 9000 0
DWIDTH 9 0
BBX 8 15 1 -4
BITMAP
FE
FE
40
80
F8
FC
06
02
03
01
01
79
FD
03
01
ENDCHAR
STARTCHAR char158
ENCODING 9302
SWIDTH 10000 0
DWIDTH 10 0
BBX 9 14 1 -3
BITMAP
F980
F980
4080
8080
8080
F880
FC80
0280
0180
0080
7880
FE80
0180
0080
ENDCHAR
STARTCHAR char158
ENCODING 9303
SWIDTH 10000 0
DWIDTH 10 0
BBX 9 14 1 -3
BITMAP
F980
F980
4180
8780
8C80
F880
FC80
0280
0180
0080
7880
FE80
0180
0080
ENDCHAR
STARTCHAR char158
ENCODING 9304
SWIDTH 10000 0
DWIDTH 10 0
BBX 9 14 1 -3
BITMAP
FF80
FF80
4180
8080
8080
F880
FC80
0280
0180
0080
7880
FE80
0180
0080
ENDCHAR
STARTCHAR char161
ENCODING 9305
SWIDTH 10000 0
DWIDTH 10 0
BBX 9 14 1 -3
BITMAP
FD80
FD80
1080
3880
7C80
CE80
8680
4B80
3180
0080
7880
FE80
0180
0080
ENDCHAR
STARTCHAR char162
ENCODING 9306
SWIDTH 10000 0
DWIDTH 10 0
BBX 9 15 1 -4
BITMAP
0F80
1F80
1980
1080
1980
1F80
F080
7080
0880
0080
0080
3880
7E80
0380
0080
ENDCHAR
STARTCHAR char163
ENCODING 9307
SWIDTH 10000 0
DWIDTH 10 0
BBX 9 13 1 -2
BITMAP
7D80
7D80
3880
6C80
E680
F280
1980
0480
0080
7880
FE80
0180
0080
ENDCHAR
STARTCHAR char164
ENCODING 9308
SWIDTH 10000 0
DWIDTH 10 0
BBX 9 15 1 -4
BITMAP
7F00
7F00
3000
4700
7F80
3880
1880
0580
0100
0200
0400
7800
FC00
0600
0100
ENDCHAR
STARTCHAR char224
ENCODING 9309
SWIDTH 10000 0
DWIDTH 10 0
BBX 9 13 1 -2
BITMAP
7F00
7F00
4000
DE00
FE00
8000
8000
BC00
FE00
0100
7880
FE80
0180
ENDCHAR
STARTCHAR char224
ENCODING 9310
SWIDTH 11000 0
DWIDTH 11 0
BBX 10 15 1 -2
BITMAP
00C0
0100
7F00
7F00
4000
DE00
FE00
8000
8000
BC00
FE00
0100
7880
FE80
0180
ENDCHAR
STARTCHAR char154
ENCODING 9311
SWIDTH 9000 0
DWIDTH 9 0
BBX 8 16 1 -5
BITMAP
FF
FF
4D
85
F5
FD
05
01
01
79
FF
03
03
05
03
01
ENDCHAR
STARTCHAR char166
ENCODING 9312
SWIDTH 10000 0
DWIDTH 10 0
BBX 9 15 1 -4
BITMAP
7F80
7F80
2D80
E480
8280
0280
0080
3980
7980
C880
8880
DC80
5E80
0180
0080
ENDCHAR
STARTCHAR char167
ENCODING 9313
SWIDTH 10000 0
DWIDTH 10 0
BBX 9 15 1 -4
BITMAP
FF80
FF80
4580
C480
FC80
0C80
0080
3980
7980
8880
8880
DC80
5E80
0180
0080
ENDCHAR
STARTCHAR char168
ENCODING 9314
SWIDTH 10000 0
DWIDTH 10 0
BBX 9 16 1 -5
BITMAP
FF80
FF80
4180
8080
F880
FE80
0180
0080
3980
7980
8880
8880
DC80
5E80
0180
0080
ENDCHAR
STARTCHAR char169
ENCODING 9315
SWIDTH 10000 0
DWIDTH 10 0
BBX 9 16 1 -5
BITMAP
FF80
FF80
0080
7F80
0080
3E80
7F80
8080
3980
7980
8880
8880
DC80
5E80
0180
0080
ENDCHAR
STARTCHAR char170
ENCODING 9316
SWIDTH 11000 0
DWIDTH 11 0
BBX 10 15 1 -4
BITMAP
7F00
7F00
0800
1800
7E00
C700
0080
39C0
7980
C880
8880
DC80
5E80
0180
0080
ENDCHAR
STARTCHAR char171
ENCODING 9317
SWIDTH 10000 0
DWIDTH 10 0
BBX 9 14 1 -3
BITMAP
7D80
3D80
7880
6680
7980
0C80
0080
3980
7980
8880
8880
DC80
5E80
0180
ENDCHAR
STARTCHAR char172
ENCODING 9505
SWIDTH 10000 0
DWIDTH 10 0
BBX 9 15 1 -4
BITMAP
7F00
7F00
0800
FF80
FF80
1980
2480
6480
C280
0280
0080
0080
0080
0080
0080
ENDCHAR
STARTCHAR char173
ENCODING 9506
SWIDTH 9000 0
DWIDTH 9 0
BBX 8 16 1 -5
BITMAP
7E
7E
08
FF
FF
6D
C5
85
F5
FD
05
01
01
01
01
01
ENDCHAR
STARTCHAR char174
ENCODING 9507
SWIDTH 9000 0
DWIDTH 9 0
BBX 8 13 1 -2
BITMAP
7F
7F
08
7F
FF
80
80
80
F8
FC
CE
02
01
ENDCHAR
STARTCHAR char175
ENCODING 9508
SWIDTH 10000 0
DWIDTH 10 0
BBX 9 13 1 -2
BITMAP
7F00
7F00
0800
7F00
7F00
4000
DE00
FF00
8000
FC00
FE00
0100
0080
ENDCHAR
STARTCHAR char176
ENCODING 9509
SWIDTH 11000 0
DWIDTH 11 0
BBX 10 17 1 -6
BITMAP
7F00
7F00
0800
3C00
7E00
C300
3D80
7E40
C400
CF00
5F80
3180
3180
1980
0300
0400
0800
ENDCHAR
STARTCHAR char177
ENCODING 9510
SWIDTH 8000 0
DWIDTH 8 0
BBX 7 16 1 -5
BITMAP
7C
7C
10
FE
FE
80
80
FC
6E
46
06
06
04
0C
08
10
ENDCHAR
STARTCHAR char178
ENCODING 9511
SWIDTH 10000 0
DWIDTH 10 0
BBX 9 17 1 -6
BITMAP
7F00
7F00
0800
FF00
FF00
6000
C000
8000
FC00
FE00
0600
0300
0100
0100
0080
0080
0080
ENDCHAR
STARTCHAR char179
ENCODING 9512
SWIDTH 9000 0
DWIDTH 9 0
BBX 8 17 1 -6
BITMAP
7E
7E
10
7E
7E
18
10
7C
FE
8E
8B
71
01
01
01
01
01
ENDCHAR
STARTCHAR char180
ENCODING 9513
SWIDTH 10000 0
DWIDTH 10 0
BBX 9 13 1 -2
BITMAP
7F00
7F00
0800
FF80
FF80
4180
C080
C080
F880
FE80
0280
0180
0080
ENDCHAR
STARTCHAR char181
ENCODING 9514
SWIDTH 10000 0
DWIDTH 10 0
BBX 9 13 1 -2
BITMAP
FC00
FC00
1000
FD80
FD80
3080
1080
7880
FC80
8E80
8B80
7180
0080
ENDCHAR
STARTCHAR char182
ENCODING 9515
SWIDTH 12000 0
DWIDTH 12 0
BBX 11 13 1 -2
BITMAP
3F00
3F60
0480
3F00
3F00
0C00
0400
0F00
F380
61C0
30C0
1880
0F00
ENDCHAR
STARTCHAR char175
ENCODING 9516
SWIDTH 13000 0
DWIDTH 13 0
BBX 11 13 1 -2
BITMAP
7F00
7F60
0880
7F00
7F00
4000
DE00
FF00
8000
FC00
FE00
0100
0080
ENDCHAR
STARTCHAR char173
ENCODING 9517
SWIDTH 9000 0
DWIDTH 9 0
BBX 8 18 1 -7
BITMAP
7E
7E
08
FF
FF
6D
C5
85
F5
FD
05
01
01
01
03
05
03
01
ENDCHAR
STARTCHAR char182
ENCODING 9518
SWIDTH 12000 0
DWIDTH 12 0
BBX 11 18 1 -7
BITMAP
3F00
3F60
0480
3F00
3F00
0C00
0400
0F00
F380
61C0
30C0
1880
0F80
0080
0180
0280
0180
0080
ENDCHAR
STARTCHAR char186
ENCODING 9520
SWIDTH 11000 0
DWIDTH 11 0
BBX 11 16 1 -5
BITMAP
7F00
7F00
0800
FF80
FF80
1980
2480
E480
C280
0280
0080
E080
5F20
2040
1F80
0F00
ENDCHAR
STARTCHAR char187
ENCODING 9521
SWIDTH 12000 0
DWIDTH 12 0
BBX 13 16 1 -5
BITMAP
3F80
3F80
0C00
7FC0
7FC0
26C0
4240
4240
7E40
4E40
0240
F048
4F90
2020
1FC0
0F80
ENDCHAR
STARTCHAR char188
ENCODING 9522
SWIDTH 11000 0
DWIDTH 11 0
BBX 11 17 1 -6
BITMAP
F800
F800
2000
F980
F980
2080
7880
FC80
8E80
8B80
7180
0080
F080
4F20
2040
1F80
0F00
ENDCHAR
STARTCHAR char189
ENCODING 9536
SWIDTH 10000 0
DWIDTH 10 0
BBX 9 16 1 -5
BITMAP
3980
7980
8880
8880
DC80
5E80
0180
7F80
7F80
1480
6480
C280
0280
0080
0080
0080
ENDCHAR
STARTCHAR char190
ENCODING 9537
SWIDTH 10000 0
DWIDTH 10 0
BBX 9 16 1 -5
BITMAP
3980
7980
8880
8880
DC80
5E80
0180
7F80
7F80
4280
F280
FA80
0E80
0280
0080
0080
ENDCHAR
STARTCHAR char191
ENCODING 9538
SWIDTH 10000 0
DWIDTH 10 0
BBX 9 16 1 -5
BITMAP
3980
7980
8980
8880
C880
DC80
1E80
0180
7F00
7F00
4000
4000
7C00
7E00
0300
0080
ENDCHAR
STARTCHAR char192
ENCODING 9539
SWIDTH 10000 0
DWIDTH 10 0
BBX 9 16 1 -5
BITMAP
3980
7980
8980
8880
DC80
DE80
0180
3F00
3F00
0800
0C00
DF00
7180
3080
1980
0F00
ENDCHAR
STARTCHAR char193
ENCODING 9540
SWIDTH 11000 0
DWIDTH 11 0
BBX 10 16 1 -5
BITMAP
3980
7980
8880
8880
DC80
5E80
0180
7F80
7F80
4000
5F00
7F00
4000
7E00
7F80
0040
ENDCHAR
STARTCHAR char194
ENCODING 9541
SWIDTH 10000 0
DWIDTH 10 0
BBX 9 18 1 -7
BITMAP
3980
7980
8880
8880
DC80
5E80
0180
7F80
7F80
6000
2F00
3F80
1180
0180
0100
0200
0400
0800
ENDCHAR
STARTCHAR char195
ENCODING 9542
SWIDTH 11000 0
DWIDTH 11 0
BBX 10 18 1 -7
BITMAP
3980
7980
8880
8880
DC80
5E80
0180
7F80
7F80
2000
4000
7E00
7F00
0180
0080
00C0
0040
0040
ENDCHAR
STARTCHAR char196
ENCODING 9543
SWIDTH 10000 0
DWIDTH 10 0
BBX 9 16 1 -5
BITMAP
3980
7980
8880
8880
DC80
5E80
0180
F980
F980
6080
C080
C080
FC80
FE80
0180
0080
ENDCHAR
STARTCHAR char196
ENCODING 9544
SWIDTH 10000 0
DWIDTH 10 0
BBX 9 16 1 -5
BITMAP
3980
7980
8880
8880
DC80
5E80
0180
FF80
FF80
6180
C080
C080
FC80
FE80
0180
0080
ENDCHAR
STARTCHAR char198
ENCODING 9545
SWIDTH 12000 0
DWIDTH 12 0
BBX 10 16 1 -5
BITMAP
3980
7980
8980
9C80
DE80
4180
3F80
3F80
1000
2700
7F80
1CC0
0CC0
0480
0100
0200
ENDCHAR
STARTCHAR char199
ENCODING 9552
SWIDTH 10000 0
DWIDTH 10 0
BBX 8 16 1 -5
BITMAP
FB
FB
4D
E7
F3
09
05
FF
FF
31
69
CD
05
01
01
01
ENDCHAR
STARTCHAR char200
ENCODING 9553
SWIDTH 9000 0
DWIDTH 9 0
BBX 8 16 1 -5
BITMAP
FB
FB
59
ED
F3
19
05
FF
FF
45
85
E5
FD
05
01
01
ENDCHAR
STARTCHAR char201
ENCODING 9554
SWIDTH 10000 0
DWIDTH 10 0
BBX 9 14 1 -3
BITMAP
FB00
FB00
5900
E500
F300
0900
7F00
7F00
4000
4000
7C00
7E00
0100
0080
ENDCHAR
STARTCHAR char202
ENCODING 9555
SWIDTH 10000 0
DWIDTH 10 0
BBX 9 17 1 -6
BITMAP
FD80
FD80
7880
EC80
F280
0980
3E80
7E00
8600
CF00
7380
1180
1980
0900
0200
0400
0800
ENDCHAR
STARTCHAR char203
ENCODING 9556
SWIDTH 10000 0
DWIDTH 10 0
BBX 9 16 1 -5
BITMAP
FD80
FD80
7880
EC80
F280
0980
7F80
7F00
6000
6E00
3F00
3180
0180
0100
0200
0400
ENDCHAR
STARTCHAR char204
ENCODING 9557
SWIDTH 10000 0
DWIDTH 10 0
BBX 9 18 1 -7
BITMAP
FB00
F900
5900
ED00
F300
0900
7F00
7F00
2000
4000
7C00
7E00
0600
0300
0100
0080
0080
0080
ENDCHAR
STARTCHAR char205
ENCODING 9558
SWIDTH 10000 0
DWIDTH 10 0
BBX 9 18 1 -7
BITMAP
FD80
FD80
5880
E680
F980
0480
7F80
7F80
0400
1E00
3F00
4700
4580
3880
0080
0080
0080
0080
ENDCHAR
STARTCHAR char206
ENCODING 9559
SWIDTH 9000 0
DWIDTH 9 0
BBX 8 15 1 -4
BITMAP
FB
FB
59
ED
F3
09
FB
FB
61
C1
81
F9
FD
03
01
ENDCHAR
STARTCHAR char206
ENCODING 9560
SWIDTH 9000 0
DWIDTH 9 0
BBX 8 15 1 -4
BITMAP
FB
FB
59
ED
F3
09
FF
FF
61
C1
81
F9
FD
03
01
ENDCHAR
STARTCHAR char208
ENCODING 9561
SWIDTH 10000 0
DWIDTH 10 0
BBX 9 15 1 -4
BITMAP
FD80
FD80
5880
E680
F980
0480
FD80
FD80
1080
7880
FC80
8E80
8B80
7180
0080
ENDCHAR
STARTCHAR char209
ENCODING 9562
SWIDTH 12000 0
DWIDTH 12 0
BBX 11 14 1 -3
BITMAP
FB00
FB00
5900
E500
F360
0940
3F80
3F80
0400
CF00
7980
30C0
18C0
0F80
ENDCHAR
STARTCHAR char210
ENCODING 9568
SWIDTH 11000 0
DWIDTH 11 0
BBX 11 18 1 -7
BITMAP
FD80
FD80
7880
E680
F180
0880
FF80
FF80
2980
6480
C480
0080
0080
F080
4F20
2040
1F80
0F00
ENDCHAR
STARTCHAR char211
ENCODING 9569
SWIDTH 10000 0
DWIDTH 10 0
BBX 11 18 1 -7
BITMAP
FD80
FD80
7880
E680
F180
0880
FF80
FF80
4480
8480
FC80
FC80
0480
F080
4F20
2040
1F80
0F00
ENDCHAR
STARTCHAR char212
ENCODING 9570
SWIDTH 10000 0
DWIDTH 10 0
BBX 11 18 1 -7
BITMAP
FD80
FD80
4C80
F280
F980
0480
F980
F980
4080
C080
FC80
FE80
0180
F080
4F20
2040
1F80
0F00
ENDCHAR
STARTCHAR char212
ENCODING 9571
SWIDTH 10000 0
DWIDTH 10 0
BBX 11 18 1 -7
BITMAP
FD80
FD80
4C80
F280
F980
0480
FF80
FF80
4180
C080
FC80
FE80
0180
F080
4F20
2040
1F80
0F00
ENDCHAR
STARTCHAR char214
ENCODING 9572
SWIDTH 11000 0
DWIDTH 11 0
BBX 11 18 1 -7
BITMAP
FD80
FD80
7880
EE80
F380
0980
FD80
FD80
1080
7C80
FE80
8B80
7180
0080
FF20
4040
3F80
1F00
ENDCHAR
STARTCHAR char215
ENCODING 9584
SWIDTH 10000 0
DWIDTH 10 0
BBX 9 17 1 -6
BITMAP
FD80
FD80
7C80
E680
F380
0880
FF80
FF80
1880
6480
C680
0280
0080
7880
FE80
0180
0080
ENDCHAR
STARTCHAR char216
ENCODING 9585
SWIDTH 9000 0
DWIDTH 9 0
BBX 8 17 1 -6
BITMAP
FB
FB
79
ED
F7
0B
FF
FF
45
85
FD
FD
01
79
FD
03
01
ENDCHAR
STARTCHAR char217
ENCODING 9586
SWIDTH 9000 0
DWIDTH 9 0
BBX 8 19 1 -8
BITMAP
FB
FB
79
ED
F3
09
7E
7E
10
78
FC
8E
8E
72
03
79
FD
03
01
ENDCHAR
STARTCHAR char218
ENCODING 9587
SWIDTH 10000 0
DWIDTH 10 0
BBX 9 17 1 -6
BITMAP
FD80
FD80
7C80
E680
F280
0980
F980
F980
4080
C080
FC80
FE80
0180
7880
FE80
0180
0080
ENDCHAR
STARTCHAR char218
ENCODING 9588
SWIDTH 10000 0
DWIDTH 10 0
BBX 9 17 1 -6
BITMAP
FD80
FD80
7C80
E680
F280
0980
FF80
FF80
4080
C080
FC80
FE80
0180
7880
FE80
0180
0080
ENDCHAR
STARTCHAR char220
ENCODING 9589
SWIDTH 10000 0
DWIDTH 10 0
BBX 9 17 1 -6
BITMAP
FD80
FD80
7880
EC80
F280
0980
FD80
FC80
1080
7C80
FE80
8F80
7180
0080
7880
FE80
0180
ENDCHAR
ENDFONT
